<svg width="573" height="481" viewBox="0 0 573 481" fill="none" xmlns="http://www.w3.org/2000/svg">
<rect id="Rectangle 1" x="90" y="122" width="132" height="162" rx="46" fill="#B4EDFF"/>
<path id="Vector 29" d="M337.503 142.131C361.024 132.051 383.17 117.032 405.909 105.146C413.57 101.141 411.112 103.256 405.909 107.273C392.093 117.94 377.1 126.596 361.887 135.094C342.52 145.912 323.243 156.865 303.955 167.824C297.424 171.535 277.132 179.443 284.644 179.443C288.484 179.443 291.797 176.636 295.282 175.025C299.513 173.068 325.209 160.894 327.521 159.805C354.516 147.091 381.667 134.721 408.773 122.247C412.153 120.692 427.116 112.803 415.074 122.738C398.88 136.098 380.644 147.06 363.196 158.66C351.357 166.531 338.075 173.876 327.193 183.125C314.555 193.868 356.266 167.145 370.888 159.314C396.128 145.796 421.484 132.507 446.494 118.565C464.157 108.719 443.723 123.288 441.094 125.275C420.507 140.833 398.917 155.036 377.107 168.806C367.225 175.044 357.195 181.046 347.322 187.298C344.459 189.112 341.589 190.919 338.813 192.862C333.406 196.647 336.209 195.443 340.613 193.517C377.531 177.365 414.746 159.679 449.522 139.267C470.174 127.145 412.901 170.131 394.535 185.498C390.645 188.753 379.116 198.404 383.653 196.135C400.885 187.519 417.239 176.629 433.648 166.597C448.44 157.553 463.585 148.873 478.079 139.349C490.142 131.422 454.775 156.389 443.221 165.042C408.767 190.844 304.556 266.826 341.104 244.085C379.515 220.184 419.179 196.648 453.368 166.842C471.109 151.375 427.099 206.39 410 222.565C400.686 231.375 374.073 258.854 381.525 248.422C394.937 229.646 419.619 213.84 437.821 200.39C444.442 195.497 459.123 185.303 466.623 180.425C469.425 178.603 477.361 173.151 475.624 176.006C471.555 182.697 464.966 187.5 459.259 192.862C448.095 203.352 436.467 213.468 424.729 223.301C406.562 238.521 387.354 252.593 369.742 268.469C368.281 269.786 364.02 273.824 365.651 272.724C370.483 269.465 374.791 265.492 379.398 261.923C405.984 241.327 433.046 221.355 460.568 202.027C474.499 192.244 515.719 162.181 502.626 173.061C467.09 202.591 428.501 228.208 394.045 259.141C392.228 260.771 387.077 265.596 389.38 264.787C395.499 262.637 400.733 258.509 406.318 255.213C428.769 241.966 451.435 229.131 474.151 216.346C486.489 209.402 498.985 202.619 510.972 195.072C523.753 187.024 489.309 216.123 478.406 226.574C452.704 251.211 375.365 324.708 402.8 302.017C429.144 280.228 457.654 260.429 486.098 241.466C491.734 237.709 477.024 251.533 472.269 256.359C456.754 272.104 441.488 288.09 426.038 303.899C411.194 319.089 431.058 301.873 433.484 300.053C450.554 287.251 467.897 274.529 485.852 262.986C504.553 250.964 490.682 266.722 485.607 273.133C482.838 276.63 466.555 292.236 462.368 290.561C454.162 287.279 461.01 268.768 456.477 266.178C452.653 263.993 436.555 271.012 433.893 271.905C425.189 274.827 415.919 278.4 407.382 281.724C398.955 285.006 388.272 291.375 379.071 292.525C371.099 293.522 386.6 277.934 392.572 272.56C400.882 265.08 410.665 256.19 420.801 251.122C424.047 249.499 428.771 251.024 430.293 254.068" stroke="#FFBE83" stroke-width="20" stroke-linecap="round"/>
<g id="table">
<rect id="Rectangle 1_2" x="25" y="286" width="546" height="13" rx="6.5" stroke="black" stroke-width="4"/>
<rect id="Rectangle 7" x="51" y="303" width="498" height="12" rx="6" stroke="black" stroke-width="4"/>
<path id="Rectangle 8" d="M41.016 470.255L104.096 318.216C104.403 317.476 105.088 317.007 105.863 317.007L117.619 317.007L51.0771 475.436C49.8668 478.318 46.6355 479.489 43.8598 478.052C41.0927 476.62 39.8215 473.134 41.016 470.255Z" stroke="black" stroke-width="4"/>
<path id="Rectangle 10" d="M567.465 469.44L504.385 317.401C504.078 316.661 503.393 316.193 502.618 316.193L490.862 316.193L557.404 474.621C558.614 477.503 561.846 478.674 564.621 477.237C567.388 475.805 568.66 472.319 567.465 469.44Z" stroke="black" stroke-width="4"/>
</g>
<g id="plant">
<g id="Vector 28">
<path d="M427.599 130.588C438.39 139.838 424.251 145.382 415.832 146.997C416.05 149.785 413.917 151.782 411.706 151.035L383.045 141.344C381.983 140.985 381.099 140.054 380.661 138.81C374.156 120.342 369.729 100.265 377.459 98.3094C391.232 94.8251 414.109 119.026 427.599 130.588Z" fill="#5FCF80"/>
<path d="M415.832 146.997C424.251 145.382 438.39 139.838 427.599 130.588C414.109 119.026 391.232 94.8251 377.459 98.3094C369.729 100.265 374.156 120.342 380.661 138.81C381.099 140.054 381.983 140.985 383.045 141.344L411.706 151.035C413.917 151.782 416.05 149.785 415.832 146.997V146.997ZM415.832 146.997C407.808 145.561 390.427 136.329 384.261 119.199" stroke="black" stroke-width="6" stroke-linecap="round"/>
</g>
<path id="plant-pot" d="M361.71 185.384C401.843 183.655 445.371 185.024 454.983 185.384C457.773 185.488 480.334 185.384 486.762 182.854M361.71 185.384C360.232 185.447 358.792 185.401 357.393 185.37C355.563 185.331 353.899 184.163 353.424 182.395C351.145 173.901 349.006 161.193 354.281 161.193C361.71 161.193 481.603 158.321 491.921 161.193C496.222 162.39 491.909 172.439 489.83 178.169C489.71 178.499 489.55 178.813 489.351 179.102L486.762 182.854M361.71 185.384C362.811 223.317 369.258 258.835 373.679 263.279C379.87 269.503 394.054 277.155 401.331 278.599C417.014 281.71 436.989 280.58 450.031 278.599C460.851 276.955 472.097 272.443 478.836 267.032C479.441 266.547 479.866 265.853 480.077 265.107C487.095 240.336 484.526 245.19 486.762 228.453C488.361 216.485 486.762 182.854 486.762 182.854" stroke="black" stroke-width="8"/>
<g id="Vector 9">
<path d="M490.484 310.55C485.277 304.708 470.898 305.311 464.359 306.343C463.516 309.55 463.808 317.812 471.719 325.207C478.424 331.476 489.809 328.88 496.913 325.876C498.828 325.067 499.441 322.675 498.23 320.774C496.481 318.032 493.839 314.313 490.484 310.55Z" fill="#5FCF80"/>
<path d="M464.359 306.343C470.898 305.311 485.277 304.708 490.484 310.55C493.839 314.313 496.481 318.032 498.23 320.774C499.441 322.675 498.828 325.067 496.913 325.876C489.809 328.88 478.424 331.476 471.719 325.207C463.808 317.812 463.516 309.55 464.359 306.343ZM464.359 306.343C466.087 310.456 470.509 317.973 474.368 315.129" stroke="black" stroke-width="6" stroke-linecap="round"/>
</g>
<g id="Vector 22">
<path d="M461.959 367.517C467.135 361.639 466.985 344.976 466.263 337.379C463.517 336.32 456.378 336.445 449.791 345.413C444.418 352.727 446.017 365.27 448.293 373.604C448.99 376.157 451.763 377.206 453.638 375.642C455.964 373.701 458.939 370.947 461.959 367.517Z" fill="#5FCF80"/>
<path d="M466.263 337.379C466.985 344.976 467.135 361.639 461.959 367.517C458.939 370.947 455.964 373.701 453.638 375.642C451.763 377.206 448.99 376.157 448.293 373.604C446.017 365.27 444.418 352.727 449.791 345.413C456.378 336.445 463.517 336.32 466.263 337.379ZM466.263 337.379C462.668 339.274 456.067 344.198 458.422 348.741" stroke="black" stroke-width="6" stroke-linecap="round"/>
</g>
<g id="Vector 21">
<path d="M505.766 215.665C506.22 207.286 496.488 195.013 491.565 189.923C488.912 191.263 483.675 196.885 483.956 208.654C484.185 218.284 492.67 226.392 499.182 230.817C501.159 232.16 503.767 230.821 504.256 228.228C504.87 224.976 505.499 220.594 505.766 215.665Z" fill="#5FCF80"/>
<path d="M491.565 189.923C496.488 195.013 506.22 207.286 505.766 215.665C505.499 220.594 504.87 224.976 504.256 228.228C503.767 230.821 501.159 232.16 499.182 230.817C492.67 226.392 484.185 218.284 483.956 208.654C483.675 196.885 488.912 191.263 491.565 189.923ZM491.565 189.923C489.986 194.116 487.921 202.891 492.295 204.444" stroke="black" stroke-width="6" stroke-linecap="round"/>
</g>
<g id="Vector 7">
<path d="M522.012 226.53C519.873 206.908 511.377 204.283 507.396 205.423C482.964 241.307 504.229 252.603 518.812 253.94C519.49 254.002 520.198 253.831 520.605 253.187C522.143 250.748 523.839 243.283 522.012 226.53Z" fill="#5FCF80"/>
<path d="M507.396 205.423C511.377 204.283 519.873 206.908 522.012 226.53C523.839 243.283 522.143 250.748 520.605 253.187C520.198 253.831 519.49 254.002 518.812 253.94C504.229 252.603 482.964 241.307 507.396 205.423ZM507.396 205.423C505.854 213.403 504.039 231.193 509.11 238.515" stroke="black" stroke-width="6" stroke-linecap="round"/>
</g>
<g id="Vector 8">
<path d="M512.973 174.898C498.249 164.879 491.266 171.069 489.615 175.416C499.26 219.856 520.055 207.06 529.84 194.467C530.246 193.945 530.521 193.317 530.388 192.672C529.805 189.861 525.849 183.66 512.973 174.898Z" fill="#5FCF80"/>
<path d="M489.615 175.416C491.266 171.069 498.249 164.879 512.973 174.898C525.849 183.66 529.805 189.861 530.388 192.672C530.521 193.317 530.246 193.945 529.84 194.467C520.055 207.06 499.26 219.856 489.615 175.416ZM489.615 175.416C494.13 181.702 505.187 194.23 513.289 194.05" stroke="black" stroke-width="6" stroke-linecap="round"/>
</g>
<g id="Vector 20">
<path d="M471.788 324.138C472.089 315.75 462.135 303.717 457.12 298.749C454.492 300.154 449.359 305.902 449.855 317.662C450.26 327.292 458.904 335.196 465.498 339.458C467.495 340.749 470.062 339.354 470.504 336.756C471.059 333.487 471.61 329.082 471.788 324.138Z" fill="#5FCF80"/>
<path d="M457.12 298.749C462.135 303.717 472.089 315.75 471.788 324.138C471.61 329.082 471.059 333.487 470.504 336.756C470.062 339.354 467.495 340.749 465.498 339.458C458.904 335.196 450.26 327.292 449.855 317.662C449.359 305.902 454.492 300.154 457.12 298.749ZM457.12 298.749C455.618 302.98 453.714 311.803 458.115 313.249" stroke="black" stroke-width="6" stroke-linecap="round"/>
</g>
<g id="Vector 19">
<path d="M496.926 188.948C497.449 180.574 487.817 168.195 482.935 163.052C480.271 164.363 474.989 169.928 475.174 181.7C475.325 191.328 483.737 199.526 490.212 204.023C492.18 205.389 494.805 204.076 495.316 201.486C495.956 198.241 496.619 193.869 496.926 188.948Z" fill="#5FCF80"/>
<path d="M482.935 163.052C487.817 168.195 497.449 180.574 496.926 188.948C496.619 193.869 495.956 198.241 495.316 201.486C494.805 204.076 492.18 205.389 490.212 204.023C483.737 199.526 475.325 191.328 475.174 181.7C474.989 169.928 480.271 164.363 482.935 163.052ZM482.935 163.052C481.322 167.228 479.186 175.98 483.547 177.58" stroke="black" stroke-width="6" stroke-linecap="round"/>
</g>
<g id="Vector 2">
<path d="M468.661 148.02C454.547 136.887 447.223 142.525 445.325 146.735C452.393 191.821 473.878 180.658 484.366 168.848C484.801 168.358 485.112 167.752 485.015 167.098C484.596 164.248 481.005 157.756 468.661 148.02Z" fill="#5FCF80"/>
<path d="M445.325 146.735C447.223 142.525 454.547 136.887 468.661 148.02C481.005 157.756 484.596 164.248 485.015 167.098C485.112 167.752 484.801 168.358 484.366 168.848C473.878 180.658 452.393 191.821 445.325 146.735ZM445.325 146.735C449.469 153.356 459.781 166.709 467.876 167.154" stroke="black" stroke-width="6" stroke-linecap="round"/>
</g>
<g id="Group 1">
<g id="Vector 4">
<path d="M454.858 240.069C461.935 222.069 455.895 214.667 451.99 213.216C414.924 228.894 427.904 251.444 439.708 261.45C440.256 261.914 440.931 262.198 441.566 261.9C443.98 260.767 448.81 255.45 454.858 240.069Z" fill="#5FCF80"/>
<path d="M451.99 213.216C455.895 214.667 461.935 222.069 454.858 240.069C448.81 255.45 443.98 260.767 441.566 261.9C440.931 262.198 440.256 261.914 439.708 261.45C427.904 251.444 414.924 228.894 451.99 213.216ZM451.99 213.216C447.06 219.069 437.449 233.105 438.443 242.42" stroke="black" stroke-width="6" stroke-linecap="round"/>
</g>
<g id="Vector 15">
<path d="M453.716 213.9C448.04 242.453 461.603 260.055 469.299 265.376C483.141 237.723 467.581 220.04 455.981 212.699C455.067 212.122 453.95 212.725 453.716 213.9Z" fill="#5FCF80"/>
<path d="M453.716 213.9C448.04 242.453 461.603 260.055 469.299 265.376C483.141 237.723 467.581 220.04 455.981 212.699C455.067 212.122 453.95 212.725 453.716 213.9Z" fill="#5FCF80"/>
<path d="M453.716 213.9C448.04 242.453 461.603 260.055 469.299 265.376C483.141 237.723 467.581 220.04 455.981 212.699C455.067 212.122 453.95 212.725 453.716 213.9Z" fill="#5FCF80"/>
<path d="M469.299 265.376C461.833 260.214 448.845 243.494 453.259 216.429C453.674 213.88 456.056 212.67 458.02 214.072C469.277 222.111 482.343 239.317 469.299 265.376ZM469.299 265.376C469.919 259.641 469.346 245.141 462.099 233.017M469.299 265.376C461.603 260.055 448.04 242.453 453.716 213.9C453.95 212.725 455.067 212.122 455.981 212.699C467.581 220.04 483.141 237.723 469.299 265.376Z" stroke="black" stroke-width="6" stroke-linecap="round"/>
</g>
</g>
<g id="Vector 6">
<path d="M407.129 135.469C406.465 155.232 414.476 159.434 418.564 159.064C447.721 128.318 428.385 113.141 414.191 109.045C413.513 108.85 412.758 108.892 412.249 109.483C410.387 111.649 407.692 118.71 407.129 135.469Z" fill="#5FCF80"/>
<path d="M418.564 159.064C414.476 159.434 406.465 155.232 407.129 135.469C407.692 118.71 410.387 111.649 412.249 109.483C412.758 108.892 413.513 108.85 414.191 109.045C428.385 113.141 447.721 128.318 418.564 159.064ZM418.564 159.064C421.213 151.484 425.519 134.278 421.552 126.093" stroke="black" stroke-width="6" stroke-linecap="round"/>
</g>
<g id="Vector 5">
<path d="M425.328 132.723C416.331 149.665 421.579 157.911 425.328 159.916C463.998 149.591 453.524 125.306 442.809 113.618C442.28 113.041 441.554 112.633 440.816 112.891C438.229 113.793 432.886 118.492 425.328 132.723Z" fill="#5FCF80"/>
<path d="M425.328 159.916C421.579 157.911 416.331 149.665 425.328 132.723C432.886 118.492 438.229 113.793 440.816 112.891C441.554 112.633 442.28 113.041 442.809 113.618C453.524 125.306 463.998 149.591 425.328 159.916ZM425.328 159.916C430.882 154.782 441.99 142.156 441.99 132.723" stroke="black" stroke-width="6" stroke-linecap="round"/>
</g>
<g id="Vector 14">
<path d="M442.887 220.928C455.832 208.03 453.032 198.376 450.013 195.161C410.742 191.383 414.289 218.079 421.359 232.911C421.705 233.637 422.273 234.27 423.025 234.289C425.693 234.357 431.981 231.794 442.887 220.928Z" fill="#5FCF80"/>
<path d="M450.013 195.161C453.032 198.376 455.832 208.03 442.887 220.928C431.981 231.794 425.693 234.357 423.025 234.289C422.273 234.27 421.705 233.637 421.359 232.911C414.289 218.079 410.742 191.383 450.013 195.161ZM450.013 195.161C443.417 198.078 429.607 206.146 427.135 215.085" stroke="black" stroke-width="6" stroke-linecap="round"/>
</g>
<g id="Vector 3">
<path d="M450.965 301.955C450.659 282.181 442.455 278.514 438.391 279.152C410.784 311.774 430.848 325.653 445.221 328.804C445.902 328.953 446.643 328.865 447.117 328.252C448.871 325.984 451.226 318.763 450.965 301.955Z" fill="#5FCF80"/>
<path d="M438.391 279.152C442.455 278.514 450.659 282.181 450.965 301.955C451.226 318.763 448.871 325.984 447.117 328.252C446.643 328.865 445.902 328.953 445.221 328.804C430.848 325.653 410.784 311.774 438.391 279.152ZM438.391 279.152C436.118 286.894 432.664 304.355 437.026 312.266" stroke="black" stroke-width="6" stroke-linecap="round"/>
</g>
<g id="Vector 10">
<path d="M452.305 211.475C452.992 200.856 452.685 184.921 447.788 176.746C440.561 164.682 433.037 159.361 428.881 154.699C428.764 154.553 428.655 154.428 428.554 154.325C424.474 149.569 415.812 162.573 422.77 183.594C427.379 197.517 439.197 208.636 447.297 214.468C449.443 216.013 452.116 214.395 452.305 211.475Z" fill="#5FCF80"/>
<path d="M428.554 154.325C432.634 159.081 440.367 164.359 447.788 176.746C452.685 184.921 452.992 200.856 452.305 211.475C452.116 214.395 449.443 216.013 447.297 214.468C439.197 208.636 427.379 197.517 422.77 183.594C415.812 162.573 424.474 149.569 428.554 154.325ZM428.554 154.325C431.809 157.667 443.764 183.267 440.575 194.497" stroke="black" stroke-width="6" stroke-linecap="round"/>
</g>
<g id="Vector 13">
<path d="M469.961 109.627C460.969 111.817 448.104 116.509 442.736 124.101C434.703 135.462 432.351 145.301 429.62 151.21C429.532 151.38 429.458 151.536 429.4 151.677C426.571 157.527 439.746 163.603 455.289 150.084C465.524 141.18 471.502 125.102 474.144 114.478C474.846 111.656 472.538 108.999 469.961 109.627Z" fill="#5FCF80"/>
<path d="M429.4 151.677C432.228 145.828 434.488 135.766 442.736 124.101C448.104 116.509 460.969 111.817 469.961 109.627C472.538 108.999 474.846 111.656 474.144 114.478C471.502 125.102 465.524 141.18 455.289 150.084C439.746 163.603 426.571 157.527 429.4 151.677ZM429.4 151.677C431.281 147.134 449.254 126.793 459.454 127.262" stroke="black" stroke-width="6" stroke-linecap="round"/>
</g>
<g id="Vector 12">
<path d="M481.967 195.284C478.116 185.62 470.966 171.433 463.076 167.006C451.666 160.604 442.857 160.246 437.259 158.546C437.095 158.486 436.947 158.439 436.815 158.407C431.245 156.582 429.21 172.837 444.182 187.195C454.18 196.784 469.355 199.722 478.871 200.161C481.388 200.277 482.953 197.758 481.967 195.284Z" fill="#5FCF80"/>
<path d="M436.815 158.407C442.386 160.231 451.36 160.432 463.076 167.006C470.966 171.433 478.116 185.62 481.967 195.284C482.953 197.758 481.388 200.277 478.871 200.161C469.355 199.722 454.18 196.784 444.182 187.195C429.21 172.837 431.245 156.582 436.815 158.407ZM436.815 158.407C441.068 159.467 462.334 174.975 464.315 186.572" stroke="black" stroke-width="6" stroke-linecap="round"/>
</g>
<g id="Vector 11">
<path d="M453.703 197.156C453.958 226.455 470.703 239.889 479.26 242.975C487.127 212.337 468.424 199.365 455.662 195.375C454.657 195.061 453.693 195.951 453.703 197.156Z" fill="#5FCF80"/>
<path d="M453.703 197.156C453.958 226.455 470.703 239.889 479.26 242.975C487.127 212.337 468.424 199.365 455.662 195.375C454.657 195.061 453.693 195.951 453.703 197.156Z" fill="#5FCF80"/>
<path d="M453.703 197.156C453.958 226.455 470.703 239.889 479.26 242.975C487.127 212.337 468.424 199.365 455.662 195.375C454.657 195.061 453.693 195.951 453.703 197.156Z" fill="#5FCF80"/>
<path d="M479.26 242.975C470.966 239.984 454.98 227.272 453.773 199.815C453.658 197.197 455.755 195.333 457.952 196.168C470.518 200.94 486.667 214.126 479.26 242.975ZM479.26 242.975C478.703 237.232 475.215 223.29 465.718 213.469M479.26 242.975C470.703 239.889 453.958 226.455 453.703 197.156C453.693 195.951 454.657 195.061 455.662 195.375C468.424 199.365 487.127 212.337 479.26 242.975Z" stroke="black" stroke-width="6" stroke-linecap="round"/>
</g>
<g id="Vector 16">
<path d="M454.131 299.64C467.715 274.921 460.005 253.084 454.285 245.092C433.264 265.804 442.833 288.491 451.651 299.896C452.345 300.794 453.573 300.657 454.131 299.64Z" fill="#5FCF80"/>
<path d="M454.131 299.64C467.715 274.921 460.005 253.084 454.285 245.092C433.264 265.804 442.833 288.491 451.651 299.896C452.345 300.794 453.573 300.657 454.131 299.64Z" fill="#5FCF80"/>
<path d="M454.131 299.64C467.715 274.921 460.005 253.084 454.285 245.092C433.264 265.804 442.833 288.491 451.651 299.896C452.345 300.794 453.573 300.657 454.131 299.64Z" fill="#5FCF80"/>
<path d="M454.285 245.092C459.774 252.761 467.096 273.181 455.673 296.663C454.45 299.176 451.353 299.614 449.886 297.467C441.692 285.473 434.666 264.423 454.285 245.092ZM454.285 245.092C452.047 250.258 448.406 264.147 451.742 278.378M454.285 245.092C460.005 253.084 467.715 274.921 454.131 299.64C453.573 300.657 452.345 300.794 451.651 299.896C442.833 288.491 433.264 265.804 454.285 245.092Z" stroke="black" stroke-width="6" stroke-linecap="round"/>
</g>
<g id="Vector 18">
<path d="M463.486 312.091C449.903 287.372 457.613 265.535 463.333 257.543C484.354 278.256 474.785 300.942 465.966 312.347C465.272 313.245 464.045 313.108 463.486 312.091Z" fill="#5FCF80"/>
<path d="M463.486 312.091C449.903 287.372 457.613 265.535 463.333 257.543C484.354 278.256 474.785 300.942 465.966 312.347C465.272 313.245 464.045 313.108 463.486 312.091Z" fill="#5FCF80"/>
<path d="M463.486 312.091C449.903 287.372 457.613 265.535 463.333 257.543C484.354 278.256 474.785 300.942 465.966 312.347C465.272 313.245 464.045 313.108 463.486 312.091Z" fill="#5FCF80"/>
<path d="M463.333 257.543C457.844 265.213 450.522 285.632 461.945 309.114C463.167 311.627 466.265 312.066 467.732 309.918C475.925 297.925 482.952 276.874 463.333 257.543ZM463.333 257.543C465.57 262.709 469.212 276.599 465.876 290.829M463.333 257.543C457.613 265.535 449.903 287.372 463.486 312.091C464.045 313.108 465.272 313.245 465.966 312.347C474.785 300.942 484.354 278.256 463.333 257.543Z" stroke="black" stroke-width="6" stroke-linecap="round"/>
</g>
<g id="Vector 25">
<path d="M473.823 381.53C460.24 356.811 467.95 334.974 473.67 326.982C494.691 347.695 485.122 370.381 476.304 381.786C475.61 382.684 474.382 382.547 473.823 381.53Z" fill="#5FCF80"/>
<path d="M473.823 381.53C460.24 356.811 467.95 334.974 473.67 326.982C494.691 347.695 485.122 370.381 476.304 381.786C475.61 382.684 474.382 382.547 473.823 381.53Z" fill="#5FCF80"/>
<path d="M473.823 381.53C460.24 356.811 467.95 334.974 473.67 326.982C494.691 347.695 485.122 370.381 476.304 381.786C475.61 382.684 474.382 382.547 473.823 381.53Z" fill="#5FCF80"/>
<path d="M473.67 326.982C468.181 334.652 460.859 355.072 472.282 378.553C473.504 381.067 476.602 381.505 478.069 379.358C486.263 367.364 493.289 346.313 473.67 326.982ZM473.67 326.982C475.908 332.148 479.549 346.038 476.213 360.268M473.67 326.982C467.95 334.974 460.24 356.811 473.823 381.53C474.382 382.547 475.61 382.684 476.304 381.786C485.122 370.381 494.691 347.695 473.67 326.982Z" stroke="black" stroke-width="6" stroke-linecap="round"/>
</g>
<g id="Vector 24">
<path d="M526.337 286.231C512.754 261.512 520.464 239.675 526.184 231.683C547.204 252.395 537.636 275.082 528.817 286.487C528.123 287.385 526.896 287.248 526.337 286.231Z" fill="#5FCF80"/>
<path d="M526.337 286.231C512.754 261.512 520.464 239.675 526.184 231.683C547.204 252.395 537.636 275.082 528.817 286.487C528.123 287.385 526.896 287.248 526.337 286.231Z" fill="#5FCF80"/>
<path d="M526.337 286.231C512.754 261.512 520.464 239.675 526.184 231.683C547.204 252.395 537.636 275.082 528.817 286.487C528.123 287.385 526.896 287.248 526.337 286.231Z" fill="#5FCF80"/>
<path d="M526.184 231.683C520.694 239.352 513.373 259.772 524.796 283.254C526.018 285.767 529.116 286.205 530.582 284.058C538.776 272.064 545.803 251.014 526.184 231.683ZM526.184 231.683C528.421 236.849 532.063 250.738 528.727 264.969M526.184 231.683C520.464 239.675 512.754 261.512 526.337 286.231C526.896 287.248 528.123 287.385 528.817 286.487C537.636 275.082 547.204 252.395 526.184 231.683Z" stroke="black" stroke-width="6" stroke-linecap="round"/>
</g>
<g id="Vector 23">
<path d="M545.52 247.686C521.357 239 515.047 216.569 514.949 206.189C542.548 206.248 547.914 230.719 547.554 246.023C547.526 247.228 546.513 248.043 545.52 247.686Z" fill="#5FCF80"/>
<path d="M545.52 247.686C521.357 239 515.047 216.569 514.949 206.189C542.548 206.248 547.914 230.719 547.554 246.023C547.526 247.228 546.513 248.043 545.52 247.686Z" fill="#5FCF80"/>
<path d="M545.52 247.686C521.357 239 515.047 216.569 514.949 206.189C542.548 206.248 547.914 230.719 547.554 246.023C547.526 247.228 546.513 248.043 545.52 247.686Z" fill="#5FCF80"/>
<path d="M514.949 206.189C515.043 216.149 520.857 237.205 542.673 246.565C545.011 247.569 547.625 245.581 547.545 242.844C547.098 227.559 540.705 206.244 514.949 206.189ZM514.949 206.189C519.54 208.454 530.072 216.323 535.472 229.677M514.949 206.189C515.047 216.569 521.357 239 545.52 247.686C546.513 248.043 547.526 247.228 547.554 246.023C547.914 230.719 542.548 206.248 514.949 206.189Z" stroke="black" stroke-width="6" stroke-linecap="round"/>
</g>
<g id="Vector 27">
<path d="M412.109 145.842C405.568 142.643 362.336 135.299 366.756 144.92C368.706 149.166 374.288 153.784 380.963 158.236C381.601 158.662 382.319 158.884 383.029 158.884L400.536 158.884L419.57 158.884C423.109 154.722 418.475 148.955 412.109 145.842Z" fill="#5FCF80"/>
<path d="M380.789 146.313C391.343 147.686 403.964 152.608 409.629 157.28C410.734 158.191 412.07 158.723 413.359 158.592C416.375 158.286 416.973 158.884 419.57 158.884M419.57 158.884C423.109 154.722 418.475 148.955 412.109 145.842C405.568 142.643 362.336 135.299 366.756 144.92C368.706 149.166 374.288 153.784 380.963 158.236C381.601 158.662 382.319 158.884 383.029 158.884L400.536 158.884L419.57 158.884Z" stroke="black" stroke-width="6" stroke-linecap="round"/>
</g>
</g>
<path id="coffee-mug" d="M149.867 194.398C149.675 187.161 149.213 181.981 148.426 180.719C146.046 176.895 149.681 177.71 130.809 180.719C115.714 183.125 99.2058 186.817 87.4602 180.583C84.1146 178.808 78.5041 180.657 78.2514 184.436C75.3688 227.55 72.3405 272.316 79.01 282.111C86.0444 292.442 116.353 286.929 141.219 282.534C142.694 282.274 143.906 281.211 144.325 279.773C147.272 269.65 147.441 264.105 147.823 255.446M149.867 194.398L162.845 185.276C169.253 182.001 182.496 179.241 184.205 194.398C186.341 213.344 194.351 249.131 186.875 255.446C180.894 260.498 158.348 257.551 147.823 255.446M149.867 194.398C149.927 196.67 149.961 199.145 149.969 201.766M147.823 255.446C147.956 252.425 148.115 249.026 148.426 244.921C149.428 231.727 150.013 214.917 149.969 201.766M149.969 201.766L165.515 192.293C170.143 190.305 179.399 188.433 179.399 196.854C179.399 205.183 181.228 219.462 182.818 231.882C182.853 232.154 182.916 232.412 182.982 232.679C183.88 236.274 185.135 252.476 179.399 251.938C173.418 251.376 156.174 251.236 148.141 249.131" stroke="black" stroke-width="6" stroke-linecap="round"/>
<path id="coffee-steam2" d="M118.616 168C124.783 163.333 133.416 152.4 118.616 146C103.816 139.6 59.7829 131.667 39.6162 128.5C4.11623 122.926 -16.7838 109.6 25.6162 84C41.7538 74.2566 58.8933 64.0635 71.8447 63C92.9218 61.2692 88.0113 90.3333 99.3447 97.5C110.678 104.667 148.816 95.7 151.616 78.5C154.416 61.3 130.783 52 118.616 49.5C85.4496 44 27.7162 26.8 62.1162 2" stroke="black" stroke-width="4" stroke-linecap="round"/>
<path id="coffee-steam" d="M108.984 168C104.224 160.942 98.6318 145.766 114.339 141.532C121.073 139.716 138.139 136.032 155.034 130.956C187.398 121.233 219.139 106.404 176.453 89.8171C124.477 69.6198 82.4423 76.1745 77.0876 55C75.1837 41.9695 104.041 23.8504 189.359 21" stroke="black" stroke-width="4" stroke-linecap="round"/>
</svg>
