<svg width="550" height="470" viewBox="0 0 550 470" fill="none" xmlns="http://www.w3.org/2000/svg">
<rect id="Rectangle 1" x="67" y="111" width="132" height="162" rx="46" fill="#B4EDFF"/>
<path id="Vector 29" d="M314.503 131.131C338.024 121.051 360.17 106.032 382.909 94.146C390.57 90.1412 388.112 92.2564 382.909 96.2734C369.093 106.94 354.1 115.596 338.887 124.094C319.52 134.912 300.243 145.865 280.955 156.824C274.424 160.535 254.132 168.443 261.644 168.443C265.484 168.443 268.797 165.636 272.282 164.025C276.513 162.068 302.209 149.894 304.521 148.805C331.516 136.091 358.667 123.721 385.773 111.247C389.153 109.692 404.116 101.803 392.074 111.738C375.88 125.098 357.644 136.06 340.196 147.66C328.357 155.531 315.075 162.876 304.193 172.125C291.555 182.868 333.266 156.145 347.888 148.314C373.128 134.796 398.484 121.507 423.494 107.565C441.157 97.7192 420.723 112.288 418.094 114.275C397.507 129.833 375.917 144.036 354.107 157.806C344.225 164.044 334.195 170.046 324.322 176.298C321.459 178.112 318.589 179.919 315.813 181.862C310.406 185.647 313.209 184.443 317.613 182.517C354.531 166.365 391.746 148.679 426.522 128.267C447.174 116.145 389.901 159.131 371.535 174.498C367.645 177.753 356.116 187.404 360.653 185.135C377.885 176.519 394.239 165.629 410.648 155.597C425.44 146.553 440.585 137.873 455.079 128.349C467.142 120.422 431.775 145.389 420.221 154.042C385.767 179.844 281.556 255.826 318.104 233.085C356.515 209.184 396.179 185.648 430.368 155.842C448.109 140.375 404.099 195.39 387 211.565C377.686 220.375 351.073 247.854 358.525 237.422C371.937 218.646 396.619 202.84 414.821 189.39C421.442 184.497 436.123 174.303 443.623 169.425C446.425 167.603 454.361 162.151 452.624 165.006C448.555 171.697 441.966 176.5 436.259 181.862C425.095 192.352 413.467 202.468 401.729 212.301C383.562 227.521 364.354 241.593 346.742 257.469C345.281 258.786 341.02 262.824 342.651 261.724C347.483 258.465 351.791 254.492 356.398 250.923C382.984 230.327 410.046 210.355 437.568 191.027C451.499 181.244 492.719 151.181 479.626 162.061C444.09 191.591 405.501 217.208 371.045 248.141C369.228 249.771 364.077 254.596 366.38 253.787C372.499 251.637 377.733 247.509 383.318 244.213C405.769 230.966 428.435 218.131 451.151 205.346C463.489 198.402 475.985 191.619 487.972 184.072C500.753 176.024 466.309 205.123 455.406 215.574C429.704 240.211 352.365 313.708 379.8 291.017C406.144 269.228 434.654 249.429 463.098 230.466C468.734 226.709 454.024 240.533 449.269 245.359C433.754 261.104 418.488 277.09 403.038 292.899C388.194 308.089 408.058 290.873 410.484 289.053C427.554 276.251 444.897 263.529 462.852 251.986C481.553 239.964 467.682 255.722 462.607 262.133C459.838 265.63 443.555 281.236 439.368 279.561C431.162 276.279 438.01 257.768 433.477 255.178C429.653 252.993 413.555 260.012 410.893 260.905C402.189 263.827 392.919 267.4 384.382 270.724C375.955 274.006 365.272 280.375 356.071 281.525C348.099 282.522 363.6 266.934 369.572 261.56C377.882 254.08 387.665 245.19 397.801 240.122C401.047 238.499 405.771 240.024 407.293 243.068" stroke="#FFBE83" stroke-width="20" stroke-linecap="round"/>
<g id="table">
<rect id="Rectangle 1_2" x="2" y="275" width="546" height="13" rx="6.5" stroke="black" stroke-width="4"/>
<rect id="Rectangle 7" x="28" y="292" width="498" height="12" rx="6" stroke="black" stroke-width="4"/>
<path id="Rectangle 8" d="M20.8598 467.052C18.0927 465.62 16.8215 462.134 18.016 459.255L81.0964 307.216C81.4034 306.476 82.0882 306.007 82.8629 306.007L94.6188 306.007L28.0771 464.436C26.8668 467.318 23.6355 468.489 20.8598 467.052Z" stroke="black" stroke-width="4"/>
<path id="Rectangle 10" d="M541.621 466.237C544.388 464.805 545.66 461.319 544.465 458.44L481.385 306.401C481.078 305.661 480.393 305.193 479.618 305.193L467.862 305.193L534.404 463.621C535.614 466.503 538.846 467.674 541.621 466.237Z" stroke="black" stroke-width="4"/>
</g>
<g id="plant">
<g id="Vector 28">
<path d="M404.599 119.588C415.39 128.838 401.251 134.382 392.832 135.997C393.05 138.785 390.917 140.782 388.706 140.035L360.045 130.344C358.983 129.985 358.099 129.054 357.661 127.81C351.156 109.342 346.729 89.2651 354.459 87.3094C368.232 83.8251 391.109 108.026 404.599 119.588Z" fill="#5FCF80"/>
<path d="M392.832 135.997C401.251 134.382 415.39 128.838 404.599 119.588C391.109 108.026 368.232 83.8251 354.459 87.3094C346.729 89.2651 351.156 109.342 357.661 127.81C358.099 129.054 358.983 129.985 360.045 130.344L388.706 140.035C390.917 140.782 393.05 138.785 392.832 135.997V135.997ZM392.832 135.997C384.808 134.561 367.427 125.329 361.261 108.199" stroke="black" stroke-width="6" stroke-linecap="round"/>
</g>
<path id="plant-pot" d="M338.71 174.384C378.843 172.655 422.371 174.024 431.983 174.384C434.773 174.488 457.334 174.384 463.762 171.854M338.71 174.384C337.232 174.447 335.792 174.401 334.393 174.37C332.563 174.331 330.899 173.163 330.424 171.395C328.145 162.901 326.006 150.193 331.281 150.193C338.71 150.193 458.603 147.321 468.921 150.193C473.222 151.39 468.909 161.439 466.83 167.169C466.71 167.499 466.55 167.813 466.351 168.102L463.762 171.854M338.71 174.384C339.811 212.317 346.258 247.835 350.679 252.279C356.87 258.503 371.054 266.155 378.331 267.599C394.014 270.71 413.989 269.58 427.031 267.599C437.851 265.955 449.097 261.443 455.836 256.032C456.441 255.547 456.866 254.853 457.077 254.107C464.095 229.336 461.526 234.19 463.762 217.453C465.361 205.485 463.762 171.854 463.762 171.854" stroke="black" stroke-width="8"/>
<g id="Vector 9">
<path d="M467.484 299.55C462.277 293.708 447.898 294.311 441.359 295.343C440.516 298.55 440.808 306.812 448.719 314.207C455.424 320.476 466.809 317.88 473.913 314.876C475.828 314.067 476.441 311.675 475.23 309.774C473.481 307.032 470.839 303.313 467.484 299.55Z" fill="#5FCF80"/>
<path d="M441.359 295.343C447.898 294.311 462.277 293.708 467.484 299.55C470.839 303.313 473.481 307.032 475.23 309.774C476.441 311.675 475.828 314.067 473.913 314.876C466.809 317.88 455.424 320.476 448.719 314.207C440.808 306.812 440.516 298.55 441.359 295.343ZM441.359 295.343C443.087 299.456 447.509 306.973 451.368 304.129" stroke="black" stroke-width="6" stroke-linecap="round"/>
</g>
<g id="Vector 22">
<path d="M438.959 356.517C444.135 350.639 443.985 333.976 443.263 326.379C440.517 325.32 433.378 325.445 426.791 334.413C421.418 341.727 423.017 354.27 425.293 362.604C425.99 365.157 428.763 366.206 430.638 364.642C432.964 362.701 435.939 359.947 438.959 356.517Z" fill="#5FCF80"/>
<path d="M443.263 326.379C443.985 333.976 444.135 350.639 438.959 356.517C435.939 359.947 432.964 362.701 430.638 364.642C428.763 366.206 425.99 365.157 425.293 362.604C423.017 354.27 421.418 341.727 426.791 334.413C433.378 325.445 440.517 325.32 443.263 326.379ZM443.263 326.379C439.668 328.274 433.067 333.198 435.422 337.741" stroke="black" stroke-width="6" stroke-linecap="round"/>
</g>
<g id="Vector 21">
<path d="M482.766 204.665C483.22 196.286 473.488 184.013 468.565 178.923C465.912 180.263 460.675 185.885 460.956 197.654C461.185 207.284 469.67 215.392 476.182 219.817C478.159 221.16 480.767 219.821 481.256 217.228C481.87 213.976 482.499 209.594 482.766 204.665Z" fill="#5FCF80"/>
<path d="M468.565 178.923C473.488 184.013 483.22 196.286 482.766 204.665C482.499 209.594 481.87 213.976 481.256 217.228C480.767 219.821 478.159 221.16 476.182 219.817C469.67 215.392 461.185 207.284 460.956 197.654C460.675 185.885 465.912 180.263 468.565 178.923ZM468.565 178.923C466.986 183.116 464.921 191.891 469.295 193.444" stroke="black" stroke-width="6" stroke-linecap="round"/>
</g>
<g id="Vector 7">
<path d="M499.012 215.53C496.873 195.908 488.377 193.283 484.396 194.423C459.964 230.307 481.229 241.603 495.812 242.94C496.49 243.002 497.198 242.831 497.605 242.187C499.143 239.748 500.839 232.283 499.012 215.53Z" fill="#5FCF80"/>
<path d="M484.396 194.423C488.377 193.283 496.873 195.908 499.012 215.53C500.839 232.283 499.143 239.748 497.605 242.187C497.198 242.831 496.49 243.002 495.812 242.94C481.229 241.603 459.964 230.307 484.396 194.423ZM484.396 194.423C482.854 202.403 481.039 220.193 486.11 227.515" stroke="black" stroke-width="6" stroke-linecap="round"/>
</g>
<g id="Vector 8">
<path d="M489.973 163.898C475.249 153.879 468.266 160.069 466.615 164.416C476.26 208.856 497.055 196.06 506.84 183.467C507.246 182.945 507.521 182.317 507.388 181.672C506.805 178.861 502.849 172.66 489.973 163.898Z" fill="#5FCF80"/>
<path d="M466.615 164.416C468.266 160.069 475.249 153.879 489.973 163.898C502.849 172.66 506.805 178.861 507.388 181.672C507.521 182.317 507.246 182.945 506.84 183.467C497.055 196.06 476.26 208.856 466.615 164.416ZM466.615 164.416C471.13 170.702 482.187 183.23 490.289 183.05" stroke="black" stroke-width="6" stroke-linecap="round"/>
</g>
<g id="Vector 20">
<path d="M448.788 313.138C449.089 304.75 439.135 292.717 434.12 287.749C431.492 289.154 426.359 294.902 426.855 306.662C427.26 316.292 435.904 324.196 442.498 328.458C444.495 329.749 447.062 328.354 447.504 325.756C448.059 322.487 448.61 318.082 448.788 313.138Z" fill="#5FCF80"/>
<path d="M434.12 287.749C439.135 292.717 449.089 304.75 448.788 313.138C448.61 318.082 448.059 322.487 447.504 325.756C447.062 328.354 444.495 329.749 442.498 328.458C435.904 324.196 427.26 316.292 426.855 306.662C426.359 294.902 431.492 289.154 434.12 287.749ZM434.12 287.749C432.618 291.98 430.714 300.803 435.115 302.249" stroke="black" stroke-width="6" stroke-linecap="round"/>
</g>
<g id="Vector 19">
<path d="M473.926 177.948C474.449 169.574 464.817 157.195 459.935 152.052C457.271 153.363 451.989 158.928 452.174 170.7C452.325 180.328 460.737 188.526 467.212 193.023C469.18 194.389 471.805 193.076 472.316 190.486C472.956 187.241 473.619 182.869 473.926 177.948Z" fill="#5FCF80"/>
<path d="M459.935 152.052C464.817 157.195 474.449 169.574 473.926 177.948C473.619 182.869 472.956 187.241 472.316 190.486C471.805 193.076 469.18 194.389 467.212 193.023C460.737 188.526 452.325 180.328 452.174 170.7C451.989 158.928 457.271 153.363 459.935 152.052ZM459.935 152.052C458.322 156.228 456.186 164.98 460.547 166.58" stroke="black" stroke-width="6" stroke-linecap="round"/>
</g>
<g id="Vector 2">
<path d="M445.661 137.02C431.547 125.887 424.223 131.525 422.325 135.735C429.393 180.821 450.878 169.658 461.366 157.848C461.801 157.358 462.112 156.752 462.015 156.098C461.596 153.248 458.005 146.756 445.661 137.02Z" fill="#5FCF80"/>
<path d="M422.325 135.735C424.223 131.525 431.547 125.887 445.661 137.02C458.005 146.756 461.596 153.248 462.015 156.098C462.112 156.752 461.801 157.358 461.366 157.848C450.878 169.658 429.393 180.821 422.325 135.735ZM422.325 135.735C426.469 142.356 436.781 155.709 444.876 156.154" stroke="black" stroke-width="6" stroke-linecap="round"/>
</g>
<g id="Group 1">
<g id="Vector 4">
<path d="M431.858 229.069C438.935 211.069 432.895 203.667 428.99 202.216C391.924 217.894 404.904 240.444 416.708 250.45C417.256 250.914 417.931 251.198 418.566 250.9C420.98 249.767 425.81 244.45 431.858 229.069Z" fill="#5FCF80"/>
<path d="M428.99 202.216C432.895 203.667 438.935 211.069 431.858 229.069C425.81 244.45 420.98 249.767 418.566 250.9C417.931 251.198 417.256 250.914 416.708 250.45C404.904 240.444 391.924 217.894 428.99 202.216ZM428.99 202.216C424.06 208.069 414.449 222.105 415.443 231.42" stroke="black" stroke-width="6" stroke-linecap="round"/>
</g>
<g id="Vector 15">
<path d="M430.716 202.9C425.04 231.453 438.603 249.055 446.299 254.376C460.141 226.723 444.581 209.04 432.981 201.699C432.067 201.122 430.95 201.725 430.716 202.9Z" fill="#5FCF80"/>
<path d="M430.716 202.9C425.04 231.453 438.603 249.055 446.299 254.376C460.141 226.723 444.581 209.04 432.981 201.699C432.067 201.122 430.95 201.725 430.716 202.9Z" fill="#5FCF80"/>
<path d="M430.716 202.9C425.04 231.453 438.603 249.055 446.299 254.376C460.141 226.723 444.581 209.04 432.981 201.699C432.067 201.122 430.95 201.725 430.716 202.9Z" fill="#5FCF80"/>
<path d="M446.299 254.376C438.833 249.214 425.845 232.494 430.259 205.429C430.674 202.88 433.056 201.67 435.02 203.072C446.277 211.111 459.343 228.317 446.299 254.376ZM446.299 254.376C446.919 248.641 446.346 234.141 439.099 222.017M446.299 254.376C438.603 249.055 425.04 231.453 430.716 202.9C430.95 201.725 432.067 201.122 432.981 201.699C444.581 209.04 460.141 226.723 446.299 254.376Z" stroke="black" stroke-width="6" stroke-linecap="round"/>
</g>
</g>
<g id="Vector 6">
<path d="M384.129 124.469C383.465 144.232 391.476 148.434 395.564 148.064C424.721 117.318 405.385 102.141 391.191 98.0452C390.513 97.8495 389.758 97.8917 389.249 98.4833C387.387 100.649 384.692 107.71 384.129 124.469Z" fill="#5FCF80"/>
<path d="M395.564 148.064C391.476 148.434 383.465 144.232 384.129 124.469C384.692 107.71 387.387 100.649 389.249 98.4833C389.758 97.8917 390.513 97.8495 391.191 98.0452C405.385 102.141 424.721 117.318 395.564 148.064ZM395.564 148.064C398.213 140.484 402.519 123.278 398.552 115.093" stroke="black" stroke-width="6" stroke-linecap="round"/>
</g>
<g id="Vector 5">
<path d="M402.328 121.723C393.331 138.665 398.579 146.911 402.328 148.916C440.998 138.591 430.524 114.306 419.809 102.618C419.28 102.041 418.554 101.633 417.816 101.891C415.229 102.793 409.886 107.492 402.328 121.723Z" fill="#5FCF80"/>
<path d="M402.328 148.916C398.579 146.911 393.331 138.665 402.328 121.723C409.886 107.492 415.229 102.793 417.816 101.891C418.554 101.633 419.28 102.041 419.809 102.618C430.524 114.306 440.998 138.591 402.328 148.916ZM402.328 148.916C407.882 143.782 418.99 131.156 418.99 121.723" stroke="black" stroke-width="6" stroke-linecap="round"/>
</g>
<g id="Vector 14">
<path d="M419.887 209.928C432.832 197.03 430.032 187.376 427.013 184.161C387.742 180.383 391.289 207.079 398.359 221.911C398.705 222.637 399.273 223.27 400.025 223.289C402.693 223.357 408.981 220.794 419.887 209.928Z" fill="#5FCF80"/>
<path d="M427.013 184.161C430.032 187.376 432.832 197.03 419.887 209.928C408.981 220.794 402.693 223.357 400.025 223.289C399.273 223.27 398.705 222.637 398.359 221.911C391.289 207.079 387.742 180.383 427.013 184.161ZM427.013 184.161C420.417 187.078 406.607 195.146 404.135 204.085" stroke="black" stroke-width="6" stroke-linecap="round"/>
</g>
<g id="Vector 3">
<path d="M427.965 290.955C427.659 271.181 419.455 267.514 415.391 268.152C387.784 300.774 407.848 314.653 422.221 317.804C422.902 317.953 423.643 317.865 424.117 317.252C425.871 314.984 428.226 307.763 427.965 290.955Z" fill="#5FCF80"/>
<path d="M415.391 268.152C419.455 267.514 427.659 271.181 427.965 290.955C428.226 307.763 425.871 314.984 424.117 317.252C423.643 317.865 422.902 317.953 422.221 317.804C407.848 314.653 387.784 300.774 415.391 268.152ZM415.391 268.152C413.118 275.894 409.664 293.355 414.026 301.266" stroke="black" stroke-width="6" stroke-linecap="round"/>
</g>
<g id="Vector 10">
<path d="M429.305 200.475C429.992 189.856 429.685 173.921 424.788 165.746C417.561 153.682 410.037 148.361 405.881 143.699C405.764 143.553 405.655 143.428 405.554 143.325C401.474 138.569 392.812 151.573 399.77 172.594C404.379 186.517 416.197 197.636 424.297 203.468C426.443 205.013 429.116 203.395 429.305 200.475Z" fill="#5FCF80"/>
<path d="M405.554 143.325C409.634 148.081 417.367 153.359 424.788 165.746C429.685 173.921 429.992 189.856 429.305 200.475C429.116 203.395 426.443 205.013 424.297 203.468C416.197 197.636 404.379 186.517 399.77 172.594C392.812 151.573 401.474 138.569 405.554 143.325ZM405.554 143.325C408.809 146.667 420.764 172.267 417.575 183.497" stroke="black" stroke-width="6" stroke-linecap="round"/>
</g>
<g id="Vector 13">
<path d="M446.961 98.6269C437.969 100.817 425.104 105.509 419.736 113.101C411.703 124.462 409.351 134.301 406.62 140.21C406.532 140.38 406.458 140.536 406.4 140.677C403.571 146.527 416.746 152.603 432.289 139.084C442.524 130.18 448.502 114.102 451.144 103.478C451.846 100.656 449.538 97.9992 446.961 98.6269Z" fill="#5FCF80"/>
<path d="M406.4 140.677C409.228 134.828 411.488 124.766 419.736 113.101C425.104 105.509 437.969 100.817 446.961 98.6269C449.538 97.9992 451.846 100.656 451.144 103.478C448.502 114.102 442.524 130.18 432.289 139.084C416.746 152.603 403.571 146.527 406.4 140.677ZM406.4 140.677C408.281 136.134 426.254 115.793 436.454 116.262" stroke="black" stroke-width="6" stroke-linecap="round"/>
</g>
<g id="Vector 12">
<path d="M458.967 184.284C455.116 174.62 447.966 160.433 440.076 156.006C428.666 149.604 419.857 149.246 414.259 147.546C414.095 147.486 413.947 147.439 413.815 147.407C408.245 145.582 406.21 161.837 421.182 176.195C431.18 185.784 446.355 188.722 455.871 189.161C458.388 189.277 459.953 186.758 458.967 184.284Z" fill="#5FCF80"/>
<path d="M413.815 147.407C419.386 149.231 428.36 149.432 440.076 156.006C447.966 160.433 455.116 174.62 458.967 184.284C459.953 186.758 458.388 189.277 455.871 189.161C446.355 188.722 431.18 185.784 421.182 176.195C406.21 161.837 408.245 145.582 413.815 147.407ZM413.815 147.407C418.068 148.467 439.334 163.975 441.315 175.572" stroke="black" stroke-width="6" stroke-linecap="round"/>
</g>
<g id="Vector 11">
<path d="M430.703 186.156C430.958 215.455 447.703 228.889 456.26 231.975C464.127 201.337 445.424 188.365 432.662 184.375C431.657 184.061 430.693 184.951 430.703 186.156Z" fill="#5FCF80"/>
<path d="M430.703 186.156C430.958 215.455 447.703 228.889 456.26 231.975C464.127 201.337 445.424 188.365 432.662 184.375C431.657 184.061 430.693 184.951 430.703 186.156Z" fill="#5FCF80"/>
<path d="M430.703 186.156C430.958 215.455 447.703 228.889 456.26 231.975C464.127 201.337 445.424 188.365 432.662 184.375C431.657 184.061 430.693 184.951 430.703 186.156Z" fill="#5FCF80"/>
<path d="M456.26 231.975C447.966 228.984 431.98 216.272 430.773 188.815C430.658 186.197 432.755 184.333 434.952 185.168C447.518 189.94 463.667 203.126 456.26 231.975ZM456.26 231.975C455.703 226.232 452.215 212.29 442.718 202.469M456.26 231.975C447.703 228.889 430.958 215.455 430.703 186.156C430.693 184.951 431.657 184.061 432.662 184.375C445.424 188.365 464.127 201.337 456.26 231.975Z" stroke="black" stroke-width="6" stroke-linecap="round"/>
</g>
<g id="Vector 16">
<path d="M431.131 288.64C444.715 263.921 437.005 242.084 431.285 234.092C410.264 254.804 419.833 277.491 428.651 288.896C429.345 289.794 430.573 289.657 431.131 288.64Z" fill="#5FCF80"/>
<path d="M431.131 288.64C444.715 263.921 437.005 242.084 431.285 234.092C410.264 254.804 419.833 277.491 428.651 288.896C429.345 289.794 430.573 289.657 431.131 288.64Z" fill="#5FCF80"/>
<path d="M431.131 288.64C444.715 263.921 437.005 242.084 431.285 234.092C410.264 254.804 419.833 277.491 428.651 288.896C429.345 289.794 430.573 289.657 431.131 288.64Z" fill="#5FCF80"/>
<path d="M431.285 234.092C436.774 241.761 444.096 262.181 432.673 285.663C431.45 288.176 428.353 288.614 426.886 286.467C418.692 274.473 411.666 253.423 431.285 234.092ZM431.285 234.092C429.047 239.258 425.406 253.147 428.742 267.378M431.285 234.092C437.005 242.084 444.715 263.921 431.131 288.64C430.573 289.657 429.345 289.794 428.651 288.896C419.833 277.491 410.264 254.804 431.285 234.092Z" stroke="black" stroke-width="6" stroke-linecap="round"/>
</g>
<g id="Vector 18">
<path d="M440.486 301.091C426.903 276.372 434.613 254.535 440.333 246.543C461.354 267.256 451.785 289.942 442.966 301.347C442.272 302.245 441.045 302.108 440.486 301.091Z" fill="#5FCF80"/>
<path d="M440.486 301.091C426.903 276.372 434.613 254.535 440.333 246.543C461.354 267.256 451.785 289.942 442.966 301.347C442.272 302.245 441.045 302.108 440.486 301.091Z" fill="#5FCF80"/>
<path d="M440.486 301.091C426.903 276.372 434.613 254.535 440.333 246.543C461.354 267.256 451.785 289.942 442.966 301.347C442.272 302.245 441.045 302.108 440.486 301.091Z" fill="#5FCF80"/>
<path d="M440.333 246.543C434.844 254.213 427.522 274.632 438.945 298.114C440.167 300.627 443.265 301.066 444.732 298.918C452.925 286.925 459.952 265.874 440.333 246.543ZM440.333 246.543C442.57 251.709 446.212 265.599 442.876 279.829M440.333 246.543C434.613 254.535 426.903 276.372 440.486 301.091C441.045 302.108 442.272 302.245 442.966 301.347C451.785 289.942 461.354 267.256 440.333 246.543Z" stroke="black" stroke-width="6" stroke-linecap="round"/>
</g>
<g id="Vector 25">
<path d="M450.823 370.53C437.24 345.811 444.95 323.974 450.67 315.982C471.691 336.695 462.122 359.381 453.304 370.786C452.61 371.684 451.382 371.547 450.823 370.53Z" fill="#5FCF80"/>
<path d="M450.823 370.53C437.24 345.811 444.95 323.974 450.67 315.982C471.691 336.695 462.122 359.381 453.304 370.786C452.61 371.684 451.382 371.547 450.823 370.53Z" fill="#5FCF80"/>
<path d="M450.823 370.53C437.24 345.811 444.95 323.974 450.67 315.982C471.691 336.695 462.122 359.381 453.304 370.786C452.61 371.684 451.382 371.547 450.823 370.53Z" fill="#5FCF80"/>
<path d="M450.67 315.982C445.181 323.652 437.859 344.072 449.282 367.553C450.504 370.067 453.602 370.505 455.069 368.358C463.263 356.364 470.289 335.313 450.67 315.982ZM450.67 315.982C452.908 321.148 456.549 335.038 453.213 349.268M450.67 315.982C444.95 323.974 437.24 345.811 450.823 370.53C451.382 371.547 452.61 371.684 453.304 370.786C462.122 359.381 471.691 336.695 450.67 315.982Z" stroke="black" stroke-width="6" stroke-linecap="round"/>
</g>
<g id="Vector 24">
<path d="M503.337 275.231C489.754 250.512 497.464 228.675 503.184 220.683C524.204 241.395 514.636 264.082 505.817 275.487C505.123 276.385 503.896 276.248 503.337 275.231Z" fill="#5FCF80"/>
<path d="M503.337 275.231C489.754 250.512 497.464 228.675 503.184 220.683C524.204 241.395 514.636 264.082 505.817 275.487C505.123 276.385 503.896 276.248 503.337 275.231Z" fill="#5FCF80"/>
<path d="M503.337 275.231C489.754 250.512 497.464 228.675 503.184 220.683C524.204 241.395 514.636 264.082 505.817 275.487C505.123 276.385 503.896 276.248 503.337 275.231Z" fill="#5FCF80"/>
<path d="M503.184 220.683C497.694 228.352 490.373 248.772 501.796 272.254C503.018 274.767 506.116 275.205 507.582 273.058C515.776 261.064 522.803 240.014 503.184 220.683ZM503.184 220.683C505.421 225.849 509.063 239.738 505.727 253.969M503.184 220.683C497.464 228.675 489.754 250.512 503.337 275.231C503.896 276.248 505.123 276.385 505.817 275.487C514.636 264.082 524.204 241.395 503.184 220.683Z" stroke="black" stroke-width="6" stroke-linecap="round"/>
</g>
<g id="Vector 23">
<path d="M522.52 236.686C498.357 228 492.047 205.569 491.949 195.189C519.548 195.248 524.914 219.719 524.554 235.023C524.526 236.228 523.513 237.043 522.52 236.686Z" fill="#5FCF80"/>
<path d="M522.52 236.686C498.357 228 492.047 205.569 491.949 195.189C519.548 195.248 524.914 219.719 524.554 235.023C524.526 236.228 523.513 237.043 522.52 236.686Z" fill="#5FCF80"/>
<path d="M522.52 236.686C498.357 228 492.047 205.569 491.949 195.189C519.548 195.248 524.914 219.719 524.554 235.023C524.526 236.228 523.513 237.043 522.52 236.686Z" fill="#5FCF80"/>
<path d="M491.949 195.189C492.043 205.149 497.857 226.205 519.673 235.565C522.011 236.569 524.625 234.581 524.545 231.844C524.098 216.559 517.705 195.244 491.949 195.189ZM491.949 195.189C496.54 197.454 507.072 205.323 512.472 218.677M491.949 195.189C492.047 205.569 498.357 228 522.52 236.686C523.513 237.043 524.526 236.228 524.554 235.023C524.914 219.719 519.548 195.248 491.949 195.189Z" stroke="black" stroke-width="6" stroke-linecap="round"/>
</g>
<g id="Vector 27">
<path d="M389.109 134.842C382.568 131.643 339.336 124.299 343.756 133.92C345.706 138.166 351.288 142.784 357.963 147.236C358.601 147.662 359.319 147.884 360.029 147.884L377.536 147.884L396.57 147.884C400.109 143.722 395.475 137.955 389.109 134.842Z" fill="#5FCF80"/>
<path d="M357.789 135.313C368.343 136.686 380.964 141.608 386.629 146.28C387.734 147.191 389.07 147.723 390.359 147.592C393.375 147.286 393.973 147.884 396.57 147.884M396.57 147.884C400.109 143.722 395.475 137.955 389.109 134.842C382.568 131.643 339.336 124.299 343.756 133.92C345.706 138.166 351.288 142.784 357.963 147.236C358.601 147.662 359.319 147.884 360.029 147.884L377.536 147.884L396.57 147.884Z" stroke="black" stroke-width="6" stroke-linecap="round"/>
</g>
</g>
<path id="coffee-mug" d="M126.867 183.398C126.675 176.161 126.213 170.981 125.426 169.719C123.046 165.895 126.681 166.71 107.809 169.719C92.7143 172.125 76.2058 175.817 64.4602 169.583C61.1146 167.808 55.5041 169.657 55.2514 173.436C52.3688 216.55 49.3405 261.316 56.01 271.111C63.0444 281.442 93.3532 275.929 118.219 271.534C119.694 271.274 120.906 270.211 121.325 268.773C124.272 258.65 124.441 253.105 124.823 244.446M126.867 183.398L139.845 174.276C146.253 171.001 159.496 168.241 161.205 183.398C163.341 202.344 171.351 238.131 163.875 244.446C157.894 249.498 135.348 246.551 124.823 244.446M126.867 183.398C126.927 185.67 126.961 188.145 126.969 190.766M124.823 244.446C124.956 241.425 125.115 238.026 125.426 233.921C126.428 220.727 127.013 203.917 126.969 190.766M126.969 190.766L142.515 181.293C147.143 179.305 156.399 177.433 156.399 185.854C156.399 194.183 158.228 208.462 159.818 220.882C159.853 221.154 159.916 221.412 159.982 221.679C160.88 225.274 162.135 241.476 156.399 240.938C150.418 240.376 133.174 240.236 125.141 238.131" stroke="black" stroke-width="6" stroke-linecap="round"/>
<path id="coffee-steam2" d="M94.2352 157.5C132.095 143 137.095 127.915 137.095 116C137.095 88.5 77.7104 98.7 72.4708 72.436C67.2312 46.172 107.085 11.2778 124.464 41.86C141.842 72.4422 111.163 83.5 104.714 55.188C98.2657 26.876 147.437 4.352 155.095 2" stroke="black" stroke-width="4" stroke-linecap="round"/>
<path id="coffee-steam" d="M85.9841 157C81.2244 149.942 75.6318 134.766 91.3388 130.532C98.0731 128.716 115.139 125.032 132.034 119.956C164.398 110.233 196.139 95.4042 153.453 78.8171C101.477 58.6198 59.4423 65.1745 54.0876 44C52.1837 30.9695 81.0414 12.8504 166.359 10" stroke="black" stroke-width="4" stroke-linecap="round"/>
</svg>
