<svg width="121" height="116" viewBox="0 0 121 116" fill="none" xmlns="http://www.w3.org/2000/svg">
<path d="M77.8667 19.3979C77.6747 12.161 77.2126 6.98146 76.4264 5.71874C74.0458 1.89539 77.6811 2.71029 58.809 5.71874C43.7143 8.12502 27.2058 11.8173 15.4602 5.5834C12.1146 3.80776 6.50412 5.65662 6.25145 9.43577C3.36877 52.5498 0.340514 97.3159 7.01002 107.111C14.0444 117.442 44.3532 111.929 69.2189 107.534C70.6936 107.274 71.9065 106.211 72.3251 104.773C75.2723 94.6498 75.4413 89.1052 75.8227 80.4461M77.8667 19.3979L90.8446 10.2757C97.2528 7.00109 110.496 4.24106 112.205 19.3979C114.341 38.3439 122.351 74.1307 114.875 80.4461C108.894 85.4983 86.3481 82.5512 75.8227 80.4461M77.8667 19.3979C77.927 21.6702 77.9607 24.1453 77.9694 26.7657M75.8227 80.4461C75.9558 77.4254 76.1147 74.0258 76.4264 69.9205C77.4282 56.727 78.013 39.9168 77.9694 26.7657M77.9694 26.7657L93.5147 17.2927C98.1428 15.3046 107.399 13.4334 107.399 21.8538C107.399 30.1828 109.228 44.462 110.818 56.8816C110.853 57.1539 110.916 57.4122 110.982 57.6785C111.88 61.2739 113.135 77.476 107.399 76.9376C101.418 76.3762 84.1745 76.2359 76.1411 74.1307" stroke="black" stroke-width="6" stroke-linecap="round"/>
</svg>
