<svg width="128" height="128" viewBox="0 0 128 128" fill="none" xmlns="http://www.w3.org/2000/svg">
    <g id="frodo-ring">
    <mask id="path-1-inside-1_1_4" fill="white">
    <path fill-rule="evenodd" clip-rule="evenodd" d="M64 128C99.3462 128 128 99.3462 128 64C128 28.6538 99.3462 0 64 0C28.6538 0 0 28.6538 0 64C0 99.3462 28.6538 128 64 128ZM64 112C90.5097 112 112 90.5097 112 64C112 37.4903 90.5097 16 64 16C37.4903 16 16 37.4903 16 64C16 90.5097 37.4903 112 64 112Z"/>
    </mask>
    <path fill-rule="evenodd" clip-rule="evenodd" d="M64 128C99.3462 128 128 99.3462 128 64C128 28.6538 99.3462 0 64 0C28.6538 0 0 28.6538 0 64C0 99.3462 28.6538 128 64 128ZM64 112C90.5097 112 112 90.5097 112 64C112 37.4903 90.5097 16 64 16C37.4903 16 16 37.4903 16 64C16 90.5097 37.4903 112 64 112Z" fill="white"/>
    <path d="M125 64C125 97.6894 97.6894 125 64 125V131C101.003 131 131 101.003 131 64H125ZM64 3C97.6894 3 125 30.3106 125 64H131C131 26.9969 101.003 -3 64 -3V3ZM3 64C3 30.3106 30.3106 3 64 3V-3C26.9969 -3 -3 26.9969 -3 64H3ZM64 125C30.3106 125 3 97.6894 3 64H-3C-3 101.003 26.9969 131 64 131V125ZM109 64C109 88.8528 88.8528 109 64 109V115C92.1665 115 115 92.1665 115 64H109ZM64 19C88.8528 19 109 39.1472 109 64H115C115 35.8335 92.1665 13 64 13V19ZM19 64C19 39.1472 39.1472 19 64 19V13C35.8335 13 13 35.8335 13 64H19ZM64 109C39.1472 109 19 88.8528 19 64H13C13 92.1665 35.8335 115 64 115V109Z" fill="white" mask="url(#path-1-inside-1_1_4)"/>
    </g>
</svg>

