<svg width="529" height="581" viewBox="0 0 529 581" fill="none" xmlns="http://www.w3.org/2000/svg">
<rect width="529" height="581" fill="white"/>
<g id="Vector 17">
<path d="M213.164 35.7661C245.752 46.187 214.375 67.7006 194.613 77.1548C218.792 133.234 185.789 150.632 157.5 137.953C137.239 128.872 36.8206 25.7883 68.6127 8.64625C100.405 -8.49581 172.429 22.74 213.164 35.7661Z" fill="#5FCF80"/>
<path d="M194.613 77.1548C214.375 67.7006 245.752 46.187 213.164 35.7661C172.429 22.74 100.405 -8.49581 68.6127 8.64625C36.8206 25.7883 137.239 128.872 157.5 137.953C185.789 150.632 218.792 133.234 194.613 77.1548ZM194.613 77.1548C173.87 80.2399 125.015 74.7357 98.8032 45.1986" stroke="black" stroke-width="6" stroke-linecap="round"/>
</g>
<g id="Vector 26">
<path d="M106.723 138.309C131.884 150.335 122.828 129.102 115.155 116.982C157.073 111.108 145.033 90.3748 121.444 81.048C104.549 74.3677 -7.11393 59.0328 4.30062 79.1218C15.7152 99.2108 75.2706 123.278 106.723 138.309Z" fill="#5FCF80"/>
<path d="M115.155 116.982C122.828 129.102 131.884 150.335 106.723 138.309C75.2706 123.278 15.7152 99.2108 4.30062 79.1218C-7.11393 59.0328 104.549 74.3677 121.444 81.048C145.033 90.3748 157.073 111.108 115.155 116.982ZM115.155 116.982C103.813 106.353 70.9573 85.2286 40.5458 82.0305" stroke="black" stroke-width="6" stroke-linecap="round"/>
</g>
<g id="plant-pot">
<path d="M75.951 166.199C70.7299 166.393 65.7026 166.098 60.9014 166.13C59.1467 166.142 57.5479 165.081 56.9909 163.417C51.1327 145.914 44.3062 115.667 57.951 115.667C75.951 115.667 366.451 109.667 391.451 115.667C402.024 118.204 391.113 139.773 386.167 151.645C386.021 151.996 385.83 152.317 385.593 152.614L378.951 160.915C378.951 160.915 382.825 231.167 378.951 256.167C373.492 291.398 379.853 280.831 362.356 333.939C362.1 334.716 361.607 335.429 360.944 335.907C344.772 347.583 316.821 357.396 289.951 360.915C258.352 365.054 209.951 367.415 171.951 360.915C154.319 357.899 119.951 341.915 104.951 328.915C94.2383 319.631 78.6177 245.438 75.951 166.199Z" fill="#FFBE83"/>
<path d="M75.951 166.199C173.192 162.588 278.66 165.447 301.951 166.199C308.711 166.417 363.374 166.199 378.951 160.915M75.951 166.199C70.7299 166.393 65.7026 166.098 60.9014 166.13C59.1467 166.142 57.5479 165.081 56.9909 163.417C51.1327 145.914 44.3062 115.667 57.951 115.667C75.951 115.667 366.451 109.667 391.451 115.667C402.024 118.204 391.113 139.773 386.167 151.645C386.021 151.996 385.83 152.317 385.593 152.614L378.951 160.915M75.951 166.199C78.6177 245.438 94.2383 319.631 104.951 328.915C119.951 341.915 154.319 357.899 171.951 360.915C209.951 367.415 258.352 365.054 289.951 360.915C316.821 357.396 344.772 347.583 360.944 335.907C361.607 335.429 362.1 334.716 362.356 333.939C379.853 280.831 373.492 291.398 378.951 256.167C382.825 231.167 378.951 160.915 378.951 160.915" stroke="black" stroke-width="8"/>
</g>
<g id="Vector 9">
<path d="M387.332 427.983C374.739 415.786 339.964 417.045 324.151 419.199C322.112 425.895 322.817 443.149 341.948 458.591C359.535 472.786 390.433 465.213 407 458.39C409.181 457.491 409.965 454.88 408.631 452.935C404.682 447.173 397.309 437.647 387.332 427.983Z" fill="#5FCF80"/>
<path d="M324.151 419.199C339.964 417.045 374.739 415.786 387.332 427.983C397.309 437.647 404.682 447.173 408.631 452.935C409.965 454.88 409.181 457.491 407 458.39C390.433 465.213 359.535 472.786 341.948 458.591C322.817 443.149 322.112 425.895 324.151 419.199ZM324.151 419.199C328.33 427.788 339.022 443.483 348.357 437.545" stroke="black" stroke-width="6" stroke-linecap="round"/>
</g>
<g id="Vector 22">
<path d="M318.345 546.941C330.862 534.666 330.501 499.871 328.756 484.007C322.114 481.796 304.848 482.056 288.917 500.783C274.274 517.997 281.047 549.08 287.441 565.818C288.283 568.022 290.873 568.873 292.852 567.589C298.713 563.79 308.427 556.666 318.345 546.941Z" fill="#5FCF80"/>
<path d="M328.756 484.007C330.501 499.871 330.862 534.666 318.345 546.941C308.427 556.666 298.713 563.79 292.852 567.589C290.873 568.873 288.283 568.022 287.441 565.818C281.047 549.08 274.274 517.997 288.917 500.783C304.848 482.056 322.114 481.796 328.756 484.007ZM328.756 484.007C320.061 487.964 304.095 498.247 309.791 507.732" stroke="black" stroke-width="6" stroke-linecap="round"/>
</g>
<g id="Vector 21">
<path d="M424.29 229.85C425.388 212.353 401.851 186.724 389.945 176.096C383.528 178.894 370.865 190.633 371.543 215.21C372.167 237.802 397.989 256.382 413.936 264.551C416.036 265.627 418.53 264.528 419.144 262.25C420.961 255.505 423.419 243.713 424.29 229.85Z" fill="#5FCF80"/>
<path d="M389.945 176.096C401.851 186.724 425.388 212.353 424.29 229.85C423.419 243.713 420.961 255.505 419.144 262.25C418.53 264.528 416.036 265.627 413.936 264.551C397.989 256.382 372.167 237.802 371.543 215.21C370.865 190.633 383.528 178.894 389.945 176.096ZM389.945 176.096C386.126 184.852 381.132 203.175 391.71 206.418" stroke="black" stroke-width="6" stroke-linecap="round"/>
</g>
<g id="Vector 7">
<path d="M463.58 252.537C458.407 211.564 437.858 206.081 428.231 208.462C368.35 284.401 421.973 307.606 457.252 309.874C457.973 309.92 458.696 309.783 459.225 309.291C463.125 305.656 468.379 290.543 463.58 252.537Z" fill="#5FCF80"/>
<path d="M428.231 208.462C437.858 206.081 458.407 211.564 463.58 252.537C468.379 290.543 463.125 305.656 459.225 309.291C458.696 309.783 457.973 309.92 457.252 309.874C421.973 307.606 368.35 284.401 428.231 208.462ZM428.231 208.462C424.503 225.125 420.114 262.274 432.377 277.564" stroke="black" stroke-width="6" stroke-linecap="round"/>
</g>
<g id="Vector 8">
<path d="M441.718 144.721C406.111 123.799 389.222 136.725 385.228 145.803C408.804 239.593 459.924 211.296 483.261 184.742C483.738 184.199 484.071 183.543 484.004 182.824C483.507 177.516 474.747 164.127 441.718 144.721Z" fill="#5FCF80"/>
<path d="M385.228 145.803C389.222 136.725 406.111 123.799 441.718 144.721C474.747 164.127 483.507 177.516 484.004 182.824C484.071 183.543 483.738 184.199 483.261 184.742C459.924 211.296 408.804 239.593 385.228 145.803ZM385.228 145.803C396.149 158.93 422.888 185.089 442.484 184.713" stroke="black" stroke-width="6" stroke-linecap="round"/>
</g>
<g id="Vector 20">
<path d="M342.116 456.358C342.845 438.841 318.772 413.715 306.644 403.342C300.287 406.274 287.875 418.279 289.072 442.836C290.173 465.409 316.382 483.44 332.498 491.271C334.62 492.302 337.091 491.15 337.656 488.859C339.33 482.078 341.539 470.236 342.116 456.358Z" fill="#5FCF80"/>
<path d="M306.644 403.342C318.772 413.715 342.845 438.841 342.116 456.358C341.539 470.236 339.33 482.078 337.656 488.859C337.091 491.15 334.62 492.302 332.498 491.271C316.382 483.44 290.173 465.409 289.072 442.836C287.875 418.279 300.287 406.274 306.644 403.342ZM306.644 403.342C303.01 412.177 298.405 430.601 309.049 433.619" stroke="black" stroke-width="6" stroke-linecap="round"/>
</g>
<g id="Vector 19">
<path d="M402.912 174.061C404.175 156.574 380.88 130.725 369.075 119.986C362.632 122.723 349.858 134.342 350.305 158.924C350.716 181.521 376.363 200.344 392.232 208.663C394.321 209.758 396.826 208.683 397.461 206.411C399.342 199.684 401.91 187.915 402.912 174.061Z" fill="#5FCF80"/>
<path d="M369.075 119.986C380.88 130.725 404.175 156.574 402.912 174.061C401.91 187.915 399.342 199.684 397.461 206.411C396.826 208.683 394.321 209.758 392.232 208.663C376.363 200.344 350.716 181.521 350.305 158.924C349.858 134.342 362.632 122.723 369.075 119.986ZM369.075 119.986C365.173 128.705 360.008 146.98 370.554 150.322" stroke="black" stroke-width="6" stroke-linecap="round"/>
</g>
<g id="Vector 2">
<path d="M334.555 88.5961C300.42 65.3489 282.708 77.121 278.119 85.913C295.394 181.065 348.286 156.236 373.34 131.296C373.852 130.786 374.228 130.154 374.209 129.431C374.066 124.102 366.217 110.16 334.555 88.5961Z" fill="#5FCF80"/>
<path d="M278.119 85.913C282.708 77.121 300.42 65.3489 334.555 88.5961C366.217 110.16 374.066 124.102 374.209 129.431C374.228 130.154 373.852 130.786 373.34 131.296C348.286 156.236 295.394 181.065 278.119 85.913ZM278.119 85.913C288.14 99.7378 313.078 127.62 332.655 128.551" stroke="black" stroke-width="6" stroke-linecap="round"/>
</g>
<g id="Group 1">
<g id="Vector 4">
<path d="M301.173 280.808C318.288 243.223 303.681 227.765 294.237 224.735C203.398 257.911 236.845 305.821 265.676 326.278C266.265 326.696 266.952 326.959 267.661 326.817C272.889 325.773 285.296 315.671 301.173 280.808Z" fill="#5FCF80"/>
<path d="M294.237 224.735C303.681 227.765 318.288 243.223 301.173 280.808C285.296 315.671 272.889 325.773 267.661 326.817C266.952 326.959 266.265 326.696 265.676 326.278C236.845 305.821 203.398 257.911 294.237 224.735ZM294.237 224.735C282.314 236.958 259.069 266.266 261.475 285.718" stroke="black" stroke-width="6" stroke-linecap="round"/>
</g>
<g id="Vector 15">
<path d="M298.412 226.163C284.683 285.787 317.484 322.543 336.096 333.654C369.573 275.91 331.943 238.984 303.888 223.657C301.679 222.45 298.976 223.71 298.412 226.163Z" fill="#5FCF80"/>
<path d="M298.412 226.163C284.683 285.787 317.484 322.543 336.096 333.654C369.573 275.91 331.943 238.984 303.888 223.657C301.679 222.45 298.976 223.71 298.412 226.163Z" fill="#5FCF80"/>
<path d="M298.412 226.163C284.683 285.787 317.484 322.543 336.096 333.654C369.573 275.91 331.943 238.984 303.888 223.657C301.679 222.45 298.976 223.71 298.412 226.163Z" fill="#5FCF80"/>
<path d="M336.096 333.654C317.484 322.543 284.683 285.787 298.412 226.163C298.976 223.71 301.679 222.45 303.888 223.657C331.943 238.984 369.573 275.91 336.096 333.654ZM336.096 333.654C337.595 321.679 336.211 291.399 318.684 266.083M336.096 333.654C317.484 322.543 284.683 285.787 298.412 226.163C298.976 223.71 301.679 222.45 303.888 223.657C331.943 238.984 369.573 275.91 336.096 333.654Z" stroke="black" stroke-width="6" stroke-linecap="round"/>
</g>
</g>
<g id="Vector 6">
<path d="M185.744 62.3881C184.138 103.656 203.511 112.429 213.399 111.657C284.907 46.5493 235.807 14.8758 201.376 6.86176C200.672 6.69797 199.936 6.7146 199.334 7.11399C194.892 10.0609 187.234 24.1093 185.744 62.3881Z" fill="#5FCF80"/>
<path d="M213.399 111.657C203.511 112.429 184.138 103.656 185.744 62.3881C187.234 24.1093 194.892 10.0609 199.334 7.11399C199.936 6.7146 200.672 6.69797 201.376 6.86176C235.807 14.8758 284.907 46.5493 213.399 111.657ZM213.399 111.657C219.805 95.8294 230.218 59.9009 220.625 42.8093" stroke="black" stroke-width="6" stroke-linecap="round"/>
</g>
<g id="Vector 5">
<path d="M229.926 56.5628C208.326 91.7628 220.926 108.896 229.926 113.063C324.151 91.2882 296.838 39.6354 270.737 15.7941C270.203 15.3069 269.553 14.9611 268.833 15.0147C263.516 15.4099 249.962 23.9121 229.926 56.5628Z" fill="#5FCF80"/>
<path d="M229.926 113.063C220.926 108.896 208.326 91.7628 229.926 56.5628C249.962 23.9121 263.516 15.4099 268.833 15.0147C269.553 14.9611 270.203 15.3069 270.737 15.7941C296.838 39.6354 324.151 91.2882 229.926 113.063ZM229.926 113.063C243.26 102.396 269.926 76.1627 269.926 56.5628" stroke="black" stroke-width="6" stroke-linecap="round"/>
</g>
<g id="Vector 14">
<path d="M272.221 240.84C303.529 213.907 296.756 193.746 289.456 187.033C193.08 179.027 203.334 236.55 220.919 267.217C221.279 267.843 221.792 268.371 222.495 268.54C227.679 269.785 243.18 265.823 272.221 240.84Z" fill="#5FCF80"/>
<path d="M289.456 187.033C296.756 193.746 303.529 213.907 272.221 240.84C243.18 265.823 227.679 269.785 222.495 268.54C221.792 268.371 221.279 267.843 220.919 267.217C203.334 236.55 193.08 179.027 289.456 187.033ZM289.456 187.033C273.504 193.124 240.106 209.972 234.127 228.638" stroke="black" stroke-width="6" stroke-linecap="round"/>
</g>
<g id="Vector 3">
<path d="M291.759 410.037C291.017 368.745 271.176 361.087 261.348 362.419C193.656 431.486 244.477 460.318 279.307 466.362C280.019 466.486 280.753 466.427 281.331 465.994C285.599 462.8 292.446 448.339 291.759 410.037Z" fill="#5FCF80"/>
<path d="M261.348 362.419C271.176 361.087 291.017 368.745 291.759 410.037C292.446 448.339 285.599 462.8 281.331 465.994C280.753 466.427 280.019 466.486 279.307 466.362C244.477 460.318 193.656 431.486 261.348 362.419ZM261.348 362.419C255.852 378.586 247.497 415.048 258.047 431.567" stroke="black" stroke-width="6" stroke-linecap="round"/>
</g>
<g id="Vector 10">
<path d="M294.377 227.956C296.688 206.416 297.215 167.521 284.075 148.581C266.596 123.389 248.401 112.278 238.349 102.542C238.066 102.238 237.801 101.977 237.557 101.761C227.69 91.8293 206.742 118.985 223.57 162.881C235.902 195.048 269.577 220.045 288.803 230.855C291.186 232.195 294.086 230.675 294.377 227.956Z" fill="#5FCF80"/>
<path d="M237.557 101.761C247.425 111.692 266.127 122.713 284.075 148.581C297.215 167.521 296.688 206.416 294.377 227.956C294.086 230.675 291.186 232.195 288.803 230.855C269.577 220.045 235.902 195.048 223.57 162.881C206.742 118.985 227.69 91.8293 237.557 101.761ZM237.557 101.761C245.431 108.74 274.343 162.197 266.63 185.648" stroke="black" stroke-width="6" stroke-linecap="round"/>
</g>
<g id="Vector 13">
<path d="M345.354 6.9542C324.007 10.6449 286.461 20.8148 271.856 38.6497C252.429 62.3721 246.74 82.9179 240.137 95.2572C239.923 95.6125 239.744 95.9383 239.603 96.2324C232.762 108.447 264.625 121.136 302.215 92.9047C329.761 72.2166 344.554 32.973 349.672 11.5189C350.306 8.85932 348.048 6.48837 345.354 6.9542Z" fill="#5FCF80"/>
<path d="M239.603 96.2324C246.445 84.0179 251.908 63.0084 271.856 38.6497C286.461 20.8148 324.007 10.6449 345.354 6.9542C348.048 6.48837 350.306 8.85932 349.672 11.5189C344.554 32.973 329.761 72.2166 302.215 92.9047C264.625 121.136 232.762 108.447 239.603 96.2324ZM239.603 96.2324C244.153 86.7457 287.62 44.27 312.287 45.2492" stroke="black" stroke-width="6" stroke-linecap="round"/>
</g>
<g id="Vector 12">
<path d="M368.987 192.339C360.427 172.438 341.793 138.292 321.048 128.242C293.454 114.873 272.148 114.125 258.61 110.576C258.215 110.451 257.857 110.353 257.538 110.284C244.066 106.475 239.145 140.417 275.354 170.4C301.887 192.371 343.497 197.62 365.553 197.601C368.287 197.599 370.067 194.85 368.987 192.339Z" fill="#5FCF80"/>
<path d="M257.538 110.284C271.009 114.094 292.714 114.515 321.048 128.242C341.793 138.292 360.427 172.438 368.987 192.339C370.067 194.85 368.287 197.599 365.553 197.601C343.497 197.62 301.887 192.371 275.354 170.4C239.145 140.417 244.066 106.475 257.538 110.284ZM257.538 110.284C267.823 112.5 319.253 144.881 324.045 169.098" stroke="black" stroke-width="6" stroke-linecap="round"/>
</g>
<g id="Vector 11">
<path d="M298.38 191.199C298.995 252.38 339.491 280.433 360.188 286.877C379.212 222.9 333.981 195.812 303.116 187.481C300.687 186.825 298.354 188.682 298.38 191.199Z" fill="#5FCF80"/>
<path d="M298.38 191.199C298.995 252.38 339.491 280.433 360.188 286.877C379.212 222.9 333.981 195.812 303.116 187.481C300.687 186.825 298.354 188.682 298.38 191.199Z" fill="#5FCF80"/>
<path d="M298.38 191.199C298.995 252.38 339.491 280.433 360.188 286.877C379.212 222.9 333.981 195.812 303.116 187.481C300.687 186.825 298.354 188.682 298.38 191.199Z" fill="#5FCF80"/>
<path d="M360.188 286.877C339.491 280.433 298.995 252.38 298.38 191.199C298.354 188.682 300.687 186.825 303.116 187.481C333.981 195.812 379.212 222.9 360.188 286.877ZM360.188 286.877C358.841 274.884 350.405 245.771 327.436 225.263M360.188 286.877C339.491 280.433 298.995 252.38 298.38 191.199C298.354 188.682 300.687 186.825 303.116 187.481C333.981 195.812 379.212 222.9 360.188 286.877Z" stroke="black" stroke-width="6" stroke-linecap="round"/>
</g>
<g id="Vector 16">
<path d="M299.415 405.202C332.265 353.584 313.62 307.985 299.786 291.297C248.949 334.548 272.09 381.92 293.417 405.736C295.096 407.611 298.064 407.326 299.415 405.202Z" fill="#5FCF80"/>
<path d="M299.415 405.202C332.265 353.584 313.62 307.985 299.786 291.297C248.949 334.548 272.09 381.92 293.417 405.736C295.096 407.611 298.064 407.326 299.415 405.202Z" fill="#5FCF80"/>
<path d="M299.415 405.202C332.265 353.584 313.62 307.985 299.786 291.297C248.949 334.548 272.09 381.92 293.417 405.736C295.096 407.611 298.064 407.326 299.415 405.202Z" fill="#5FCF80"/>
<path d="M299.786 291.297C313.62 307.985 332.265 353.584 299.415 405.202C298.064 407.326 295.096 407.611 293.417 405.736C272.09 381.92 248.949 334.548 299.786 291.297ZM299.786 291.297C294.375 302.084 285.569 331.088 293.637 360.804M299.786 291.297C313.62 307.985 332.265 353.584 299.415 405.202C298.064 407.326 295.096 407.611 293.417 405.736C272.09 381.92 248.949 334.548 299.786 291.297Z" stroke="black" stroke-width="6" stroke-linecap="round"/>
</g>
<g id="Vector 18">
<path d="M322.039 431.202C289.19 379.584 307.835 333.985 321.668 317.297C372.505 360.548 349.365 407.92 328.038 431.736C326.359 433.611 323.39 433.326 322.039 431.202Z" fill="#5FCF80"/>
<path d="M322.039 431.202C289.19 379.584 307.835 333.985 321.668 317.297C372.505 360.548 349.365 407.92 328.038 431.736C326.359 433.611 323.39 433.326 322.039 431.202Z" fill="#5FCF80"/>
<path d="M322.039 431.202C289.19 379.584 307.835 333.985 321.668 317.297C372.505 360.548 349.365 407.92 328.038 431.736C326.359 433.611 323.39 433.326 322.039 431.202Z" fill="#5FCF80"/>
<path d="M321.668 317.297C307.835 333.985 289.19 379.584 322.039 431.202C323.39 433.326 326.359 433.611 328.038 431.736C349.365 407.92 372.505 360.548 321.668 317.297ZM321.668 317.297C327.08 328.084 335.886 357.088 327.818 386.804M321.668 317.297C307.835 333.985 289.19 379.584 322.039 431.202C323.39 433.326 326.359 433.611 328.038 431.736C349.365 407.92 372.505 360.548 321.668 317.297Z" stroke="black" stroke-width="6" stroke-linecap="round"/>
</g>
<g id="Vector 25">
<path d="M347.039 576.202C314.19 524.584 332.835 478.985 346.668 462.297C397.505 505.548 374.365 552.92 353.038 576.736C351.359 578.611 348.39 578.326 347.039 576.202Z" fill="#5FCF80"/>
<path d="M347.039 576.202C314.19 524.584 332.835 478.985 346.668 462.297C397.505 505.548 374.365 552.92 353.038 576.736C351.359 578.611 348.39 578.326 347.039 576.202Z" fill="#5FCF80"/>
<path d="M347.039 576.202C314.19 524.584 332.835 478.985 346.668 462.297C397.505 505.548 374.365 552.92 353.038 576.736C351.359 578.611 348.39 578.326 347.039 576.202Z" fill="#5FCF80"/>
<path d="M346.668 462.297C332.835 478.985 314.19 524.584 347.039 576.202C348.39 578.326 351.359 578.611 353.038 576.736C374.365 552.92 397.505 505.548 346.668 462.297ZM346.668 462.297C352.08 473.085 360.886 502.088 352.818 531.804M346.668 462.297C332.835 478.985 314.19 524.584 347.039 576.202C348.39 578.326 351.359 578.611 353.038 576.736C374.365 552.92 397.505 505.548 346.668 462.297Z" stroke="black" stroke-width="6" stroke-linecap="round"/>
</g>
<g id="Vector 24">
<path d="M474.039 377.202C441.19 325.584 459.835 279.985 473.668 263.297C524.505 306.548 501.365 353.92 480.038 377.736C478.359 379.611 475.39 379.326 474.039 377.202Z" fill="#5FCF80"/>
<path d="M474.039 377.202C441.19 325.584 459.835 279.985 473.668 263.297C524.505 306.548 501.365 353.92 480.038 377.736C478.359 379.611 475.39 379.326 474.039 377.202Z" fill="#5FCF80"/>
<path d="M474.039 377.202C441.19 325.584 459.835 279.985 473.668 263.297C524.505 306.548 501.365 353.92 480.038 377.736C478.359 379.611 475.39 379.326 474.039 377.202Z" fill="#5FCF80"/>
<path d="M473.668 263.297C459.835 279.985 441.19 325.584 474.039 377.202C475.39 379.326 478.359 379.611 480.038 377.736C501.365 353.92 524.505 306.548 473.668 263.297ZM473.668 263.297C479.08 274.084 487.886 303.088 479.818 332.804M473.668 263.297C459.835 279.985 441.19 325.584 474.039 377.202C475.39 379.326 478.359 379.611 480.038 377.736C501.365 353.92 524.505 306.548 473.668 263.297Z" stroke="black" stroke-width="6" stroke-linecap="round"/>
</g>
<g id="Vector 23">
<path d="M520.43 296.713C461.996 278.577 446.736 231.736 446.499 210.061C513.244 210.185 526.222 261.285 525.351 293.242C525.283 295.758 522.834 297.459 520.43 296.713Z" fill="#5FCF80"/>
<path d="M520.43 296.713C461.996 278.577 446.736 231.736 446.499 210.061C513.244 210.185 526.222 261.285 525.351 293.242C525.283 295.758 522.834 297.459 520.43 296.713Z" fill="#5FCF80"/>
<path d="M520.43 296.713C461.996 278.577 446.736 231.736 446.499 210.061C513.244 210.185 526.222 261.285 525.351 293.242C525.283 295.758 522.834 297.459 520.43 296.713Z" fill="#5FCF80"/>
<path d="M446.499 210.061C446.736 231.736 461.996 278.577 520.43 296.713C522.834 297.459 525.283 295.758 525.351 293.242C526.222 261.285 513.244 210.185 446.499 210.061ZM446.499 210.061C457.602 214.791 483.072 231.222 496.132 259.108M446.499 210.061C446.736 231.736 461.996 278.577 520.43 296.713C522.834 297.459 525.283 295.758 525.351 293.242C526.222 261.285 513.244 210.185 446.499 210.061Z" stroke="black" stroke-width="6" stroke-linecap="round"/>
</g>
</svg>
