<svg width="293" height="38" viewBox="0 0 293 38" fill="none" xmlns="http://www.w3.org/2000/svg">
<path id="background1" d="M8 23.6213C23.4891 23.0042 38.7676 21.3022 54.1037 19.8814C60.6692 19.2731 67.1094 18.2731 73.6735 17.6603C80.1467 17.056 86.6513 16.93 93.1552 16.5291C107.31 15.6565 121.521 15.253 135.765 15.3963C144.717 15.4864 153.662 15.2339 162.585 14.7907C170.844 14.3805 179.066 13.3772 187.323 12.8682C189.197 12.7526 191.092 11.8911 192.765 11.4361C195.269 10.7553 197.872 10.2899 200.398 9.67205C203.345 8.9512 207.141 7.86715 210.369 7.91378" stroke="#5FCF80" stroke-width="15" stroke-linecap="round"/>
<path id="background2" d="M183.452 31.4346C186.524 30.9563 189.909 31.2362 193.049 30.9678C201.443 30.2499 209.541 28.5695 217.925 27.7709C229.965 26.624 241.843 25.031 253.749 23.4529C258.35 22.843 262.554 21.5245 267.02 20.6631C269.292 20.2249 271.863 20.0612 274.204 19.8131C277.594 19.4537 280.711 19.2288 284 18.968" stroke="#5FCF80" stroke-width="15" stroke-linecap="round"/>
<path id="Vector 1" d="M14 24C97.3333 17.2084 264 7.70013 264 24" stroke="black" stroke-width="4" stroke-linecap="round"/>
</svg>
